<svg id="Слой_1" data-name="Слой 1" xmlns="http://www.w3.org/2000/svg" viewBox="0 0 150 190"><defs><style>.cls-1{fill-rule:evenodd;}</style></defs><title>Монтажная область 62</title><path class="cls-1" d="M95,147.35c-3.14-25.41-35-27-39.15-.27L35,146.94c4.42-7,9.91-14.35,15.25-23.53l-1-9.06,52.1.57-1.73,8.59c5.43,10.12,11,17.7,15.29,24ZM81.54,109.8,78.78,96.67l-6.16,0L69.42,110l-12.3.15a134.24,134.24,0,0,0,5.21-13.5h-.67l-2-8.83L91,88.35,89.8,96.71H88.64c1.4,4.65,2.93,9,4.54,12.94Zm-11-66.25,10.36.59a213.33,213.33,0,0,0,4.34,39.28l-19.16-.61A201.43,201.43,0,0,0,70.55,43.55ZM68.9,39.63l-1.68-7.78,4.61-.08.77-10.92H78L79.3,31.62l4.83-.09L82.22,39.8Z"/></svg>