<svg id="Слой_1" data-name="Слой 1" xmlns="http://www.w3.org/2000/svg" viewBox="0 0 150 190"><defs><style>.cls-1{fill-rule:evenodd;}</style></defs><title>Монтажная область 65</title><path class="cls-1" d="M113.12,53.07c-2.7,1.16-15.56,5.81-22.58,8.33,1.88,5,4.77,16.72,3.6,39.89l-6.51.21L88.44,120H96.5l4.91,27.37-52.73-.91L54,120h6.6l4.06-21.39-11.85-7L64.68,78.55c-4.2-2.16-8.31-5.82-5.36-11.66,2-4,5.28-10.23,5.28-10.23l40.33-8.84,1.48-4.15s3.27-2.29,3.91,3l5.43-1.19S117.86,51,113.12,53.07ZM74.49,101.91,71.58,120h6.15l0-18.23ZM70.64,43A20.88,20.88,0,0,1,69.93,40C68.75,33,83.18,28.67,84.76,37.66c.78,4.47,1.77,10.17,1.77,10.17S73.61,50.62,70.64,43Z"/></svg>